HIERARCHY
ROOT newVegas:Hips
{
	OFFSET 0.000000 96.479958 0.000000
	CHANNELS 6 Xposition Yposition Zposition Xrotation Yrotation Zrotation
	JOINT newVegas:Pelvis
	{
		OFFSET 0.000000 0.000000 0.000000
		CHANNELS 3 Xrotation Yrotation Zrotation
		JOINT newVegas:LeftUpLeg
		{
			OFFSET 18.735201 -5.666702 -4.541200
			CHANNELS 3 Xrotation Yrotation Zrotation
			JOINT newVegas:LeftLeg
			{
				OFFSET -0.021200 -31.938179 0.493100
				CHANNELS 3 Xrotation Yrotation Zrotation
				JOINT newVegas:LeftFoot
				{
					OFFSET 0.021200 -31.938179 -4.336299
					CHANNELS 3 Xrotation Yrotation Zrotation
					JOINT newVegas:LeftToeBase
					{
						OFFSET 0.943001 -26.722000 15.023500
						CHANNELS 3 Xrotation Yrotation Zrotation
						End Site
						{
							OFFSET 0.000000 30.670183 0.000000
						}
					}
				}
				JOINT newVegas:Left_PantLeg
				{
					OFFSET 0.663870 -9.044666 -1.108900
					CHANNELS 3 Xrotation Yrotation Zrotation
					End Site
					{
						OFFSET 1.415995 20.635357 0.000000
					}
				}
			}
		}
		JOINT newVegas:RightUpLeg
		{
			OFFSET -18.735201 -5.666702 -4.541200
			CHANNELS 3 Xrotation Yrotation Zrotation
			JOINT newVegas:RightLeg
			{
				OFFSET 0.018946 -31.938133 0.493100
				CHANNELS 3 Xrotation Yrotation Zrotation
				JOINT newVegas:RightFoot
				{
					OFFSET -0.018946 -31.938126 -4.336299
					CHANNELS 3 Xrotation Yrotation Zrotation
					JOINT newVegas:RightToeBase
					{
						OFFSET -0.943001 -26.722004 15.023500
						CHANNELS 3 Xrotation Yrotation Zrotation
						End Site
						{
							OFFSET 0.000000 30.670187 0.000000
						}
					}
				}
				JOINT newVegas:Right_PantLeg
				{
					OFFSET -0.661674 -9.044716 -1.108900
					CHANNELS 3 Xrotation Yrotation Zrotation
					End Site
					{
						OFFSET -1.415958 20.635269 0.000000
					}
				}
			}
		}
	}
	JOINT newVegas:Spine
	{
		OFFSET 0.000000 10.199997 -0.299500
		CHANNELS 3 Xrotation Yrotation Zrotation
		JOINT newVegas:Spine1
		{
			OFFSET 0.000000 11.900002 -1.516600
			CHANNELS 3 Xrotation Yrotation Zrotation
			JOINT newVegas:Spine2
			{
				OFFSET 0.000000 13.600006 -2.842500
				CHANNELS 3 Xrotation Yrotation Zrotation
				JOINT newVegas:Neck
				{
					OFFSET 0.000000 9.624100 -2.890100
					CHANNELS 3 Xrotation Yrotation Zrotation
					JOINT newVegas:Head
					{
						OFFSET 0.000000 14.068802 -1.351900
						CHANNELS 3 Xrotation Yrotation Zrotation
						JOINT newVegas:Hair_Back
						{
							OFFSET 0.000000 3.231903 -17.524799
							CHANNELS 3 Xrotation Yrotation Zrotation
							End Site
							{
								OFFSET 0.000000 19.849884 0.000000
							}
						}
						JOINT newVegas:Hair_Front
						{
							OFFSET 0.000000 31.260406 4.573800
							CHANNELS 3 Xrotation Yrotation Zrotation
							JOINT newVegas:Hair_Front1
							{
								OFFSET 0.000000 2.284103 11.993300
								CHANNELS 3 Xrotation Yrotation Zrotation
								JOINT newVegas:Hair_Front2
								{
									OFFSET 0.000000 2.284103 11.993300
									CHANNELS 3 Xrotation Yrotation Zrotation
									End Site
									{
										OFFSET 0.000000 12.208862 0.000000
									}
								}
							}
						}
						JOINT newVegas:Jowel
						{
							OFFSET 0.000000 -7.458206 6.864100
							CHANNELS 3 Xrotation Yrotation Zrotation
							End Site
							{
								OFFSET 0.000000 19.849884 0.000000
							}
						}
					}
				}
				JOINT newVegas:LeftShoulder
				{
					OFFSET 15.263000 10.923401 -0.547700
					CHANNELS 3 Xrotation Yrotation Zrotation
					JOINT newVegas:LeftArm
					{
						OFFSET 25.438599 -2.830597 -13.032500
						CHANNELS 3 Xrotation Yrotation Zrotation
						JOINT newVegas:LeftForeArm
						{
							OFFSET 29.960503 0.000000 0.000000
							CHANNELS 3 Xrotation Yrotation Zrotation
							JOINT newVegas:LeftHand
							{
								OFFSET 27.849251 0.000000 0.000000
								CHANNELS 3 Xrotation Yrotation Zrotation
								JOINT newVegas:LeftHandThumb1
								{
									OFFSET 4.487587 -3.305161 6.305391
									CHANNELS 3 Xrotation Yrotation Zrotation
									JOINT newVegas:LeftHandThumb2
									{
										OFFSET 5.480453 -3.164139 3.164143
										CHANNELS 3 Xrotation Yrotation Zrotation
										JOINT newVegas:LeftHandThumb3
										{
											OFFSET 5.159721 -2.978973 2.978967
											CHANNELS 3 Xrotation Yrotation Zrotation
											End Site
											{
												OFFSET 2.494507 5.926697 1.738678
											}
										}
									}
								}
								JOINT newVegas:LeftHandIndex1
								{
									OFFSET 18.578728 -0.527832 5.208049
									CHANNELS 3 Xrotation Yrotation Zrotation
									JOINT newVegas:LeftHandIndex2
									{
										OFFSET 3.192009 0.000000 0.000000
										CHANNELS 3 Xrotation Yrotation Zrotation
										JOINT newVegas:LeftHandIndex3
										{
											OFFSET 3.835129 0.000000 0.000000
											CHANNELS 3 Xrotation Yrotation Zrotation
											End Site
											{
												OFFSET -0.034599 3.816971 0.371180
											}
										}
									}
								}
								JOINT newVegas:LeftHandMiddle1
								{
									OFFSET 18.476105 0.000000 0.000000
									CHANNELS 3 Xrotation Yrotation Zrotation
									JOINT newVegas:LeftHandMiddle2
									{
										OFFSET 3.324875 0.000000 0.000000
										CHANNELS 3 Xrotation Yrotation Zrotation
										JOINT newVegas:LeftHandMiddle3
										{
											OFFSET 4.596550 0.000000 0.000000
											CHANNELS 3 Xrotation Yrotation Zrotation
											End Site
											{
												OFFSET 0.057701 4.578827 0.399218
											}
										}
									}
								}
								JOINT newVegas:LeftHandRing1
								{
									OFFSET 17.732719 0.121887 -4.201567
									CHANNELS 3 Xrotation Yrotation Zrotation
									JOINT newVegas:LeftHandRing2
									{
										OFFSET 2.733170 0.000000 0.000000
										CHANNELS 3 Xrotation Yrotation Zrotation
										JOINT newVegas:LeftHandRing3
										{
											OFFSET 3.178268 0.000000 0.000000
											CHANNELS 3 Xrotation Yrotation Zrotation
											End Site
											{
												OFFSET 0.119102 3.170624 0.185394
											}
										}
									}
								}
								JOINT newVegas:LeftHandPinky1
								{
									OFFSET 15.989624 -0.606689 -7.535461
									CHANNELS 3 Xrotation Yrotation Zrotation
									JOINT newVegas:LeftHandPinky2
									{
										OFFSET 2.538986 0.000000 0.000000
										CHANNELS 3 Xrotation Yrotation Zrotation
										JOINT newVegas:LeftHandPinky3
										{
											OFFSET 2.593102 0.000000 0.000000
											CHANNELS 3 Xrotation Yrotation Zrotation
											End Site
											{
												OFFSET -0.150902 2.584198 0.152708
											}
										}
									}
								}
							}
							JOINT newVegas:Left_Sleeve
							{
								OFFSET 0.267448 -0.649796 0.577675
								CHANNELS 3 Xrotation Yrotation Zrotation
								End Site
								{
									OFFSET 0.000000 15.991241 0.000000
								}
							}
							JOINT newVegas:Left_CapeC
							{
								OFFSET 15.715958 -8.608795 -6.935905
								CHANNELS 3 Xrotation Yrotation Zrotation
								JOINT newVegas:Left_CapeC1
								{
									OFFSET 0.000000 -8.688499 0.000000
									CHANNELS 3 Xrotation Yrotation Zrotation
									End Site
									{
										OFFSET 0.000000 8.688499 0.000000
									}
								}
							}
						}
						JOINT newVegas:Left_CapeB
						{
							OFFSET 26.118385 -8.608795 -7.079235
							CHANNELS 3 Xrotation Yrotation Zrotation
							JOINT newVegas:Left_CapeB1
							{
								OFFSET 0.000000 -8.688499 0.000000
								CHANNELS 3 Xrotation Yrotation Zrotation
								End Site
								{
									OFFSET 0.000000 8.688499 0.000000
								}
							}
						}
						JOINT newVegas:Left_CapeA
						{
							OFFSET 5.115639 -8.608795 -10.395809
							CHANNELS 3 Xrotation Yrotation Zrotation
							JOINT newVegas:Left_CapeA1
							{
								OFFSET 0.000000 -8.688499 0.000000
								CHANNELS 3 Xrotation Yrotation Zrotation
								End Site
								{
									OFFSET 0.000000 8.688499 0.000000
								}
							}
						}
					}
				}
				JOINT newVegas:RightShoulder
				{
					OFFSET -15.263000 10.923401 -0.547700
					CHANNELS 3 Xrotation Yrotation Zrotation
					JOINT newVegas:RightArm
					{
						OFFSET -25.438599 -2.830597 -13.032500
						CHANNELS 3 Xrotation Yrotation Zrotation
						JOINT newVegas:RightForeArm
						{
							OFFSET -29.960503 0.000000 0.000000
							CHANNELS 3 Xrotation Yrotation Zrotation
							JOINT newVegas:RightHand
							{
								OFFSET -27.849251 0.000000 0.000000
								CHANNELS 3 Xrotation Yrotation Zrotation
								JOINT newVegas:RightHandThumb1
								{
									OFFSET -4.487587 -3.305161 6.305391
									CHANNELS 3 Xrotation Yrotation Zrotation
									JOINT newVegas:RightHandThumb2
									{
										OFFSET -5.480453 -3.164139 3.164143
										CHANNELS 3 Xrotation Yrotation Zrotation
										JOINT newVegas:RightHandThumb3
										{
											OFFSET -5.159721 -2.978973 2.978967
											CHANNELS 3 Xrotation Yrotation Zrotation
											End Site
											{
												OFFSET -2.494507 5.926697 1.738678
											}
										}
									}
								}
								JOINT newVegas:RightHandIndex1
								{
									OFFSET -18.578728 -0.527832 5.208049
									CHANNELS 3 Xrotation Yrotation Zrotation
									JOINT newVegas:RightHandIndex2
									{
										OFFSET -3.192009 0.000000 0.000000
										CHANNELS 3 Xrotation Yrotation Zrotation
										JOINT newVegas:RightHandIndex3
										{
											OFFSET -3.835129 0.000000 0.000000
											CHANNELS 3 Xrotation Yrotation Zrotation
											End Site
											{
												OFFSET 0.034599 3.816971 0.371180
											}
										}
									}
								}
								JOINT newVegas:RightHandMiddle1
								{
									OFFSET -18.476105 0.000000 0.000000
									CHANNELS 3 Xrotation Yrotation Zrotation
									JOINT newVegas:RightHandMiddle2
									{
										OFFSET -3.324875 0.000000 0.000000
										CHANNELS 3 Xrotation Yrotation Zrotation
										JOINT newVegas:RightHandMiddle3
										{
											OFFSET -4.596550 0.000000 0.000000
											CHANNELS 3 Xrotation Yrotation Zrotation
											End Site
											{
												OFFSET -0.057701 4.578827 0.399218
											}
										}
									}
								}
								JOINT newVegas:RightHandRing1
								{
									OFFSET -17.732719 0.121887 -4.201567
									CHANNELS 3 Xrotation Yrotation Zrotation
									JOINT newVegas:RightHandRing2
									{
										OFFSET -2.733170 0.000000 0.000000
										CHANNELS 3 Xrotation Yrotation Zrotation
										JOINT newVegas:RightHandRing3
										{
											OFFSET -3.178268 0.000000 0.000000
											CHANNELS 3 Xrotation Yrotation Zrotation
											End Site
											{
												OFFSET -0.119102 3.170624 0.185394
											}
										}
									}
								}
								JOINT newVegas:RightHandPinky1
								{
									OFFSET -15.989624 -0.606689 -7.535461
									CHANNELS 3 Xrotation Yrotation Zrotation
									JOINT newVegas:RightHandPinky2
									{
										OFFSET -2.538986 0.000000 0.000000
										CHANNELS 3 Xrotation Yrotation Zrotation
										JOINT newVegas:RightHandPinky3
										{
											OFFSET -2.593102 0.000000 0.000000
											CHANNELS 3 Xrotation Yrotation Zrotation
											End Site
											{
												OFFSET 0.150902 2.584198 0.152708
											}
										}
									}
								}
							}
							JOINT newVegas:Right_CapeC
							{
								OFFSET -15.715958 -8.608795 -6.935905
								CHANNELS 3 Xrotation Yrotation Zrotation
								JOINT newVegas:Right_CapeC1
								{
									OFFSET 0.000000 -8.688499 0.000000
									CHANNELS 3 Xrotation Yrotation Zrotation
									End Site
									{
										OFFSET 0.000000 8.688499 0.000000
									}
								}
							}
							JOINT newVegas:Right_Sleeve
							{
								OFFSET -0.267448 -0.649994 0.577675
								CHANNELS 3 Xrotation Yrotation Zrotation
								End Site
								{
									OFFSET 0.000000 15.991302 0.000000
								}
							}
						}
						JOINT newVegas:Right_CapeA
						{
							OFFSET -5.115540 -8.608795 -10.395824
							CHANNELS 3 Xrotation Yrotation Zrotation
							JOINT newVegas:Right_CapeA1
							{
								OFFSET 0.000000 -8.688499 0.000000
								CHANNELS 3 Xrotation Yrotation Zrotation
								End Site
								{
									OFFSET 0.000000 8.688499 0.000000
								}
							}
						}
						JOINT newVegas:Right_CapeB
						{
							OFFSET -26.118187 -8.608795 -7.079266
							CHANNELS 3 Xrotation Yrotation Zrotation
							JOINT newVegas:Right_CapeB1
							{
								OFFSET 0.000000 -8.688499 0.000000
								CHANNELS 3 Xrotation Yrotation Zrotation
								End Site
								{
									OFFSET 0.000000 8.688499 0.000000
								}
							}
						}
					}
				}
				JOINT newVegas:Left_Collar
				{
					OFFSET 18.625099 8.655502 8.828100
					CHANNELS 3 Xrotation Yrotation Zrotation
					JOINT newVegas:Left_Collar1
					{
						OFFSET 14.783401 10.540405 -1.259500
						CHANNELS 3 Xrotation Yrotation Zrotation
						End Site
						{
							OFFSET 0.000000 18.199875 0.000000
						}
					}
				}
				JOINT newVegas:Collar_Back
				{
					OFFSET 0.000000 15.630707 -20.132601
					CHANNELS 3 Xrotation Yrotation Zrotation
					End Site
					{
						OFFSET 0.000000 22.523010 0.000000
					}
				}
				JOINT newVegas:Left_Peck
				{
					OFFSET 17.239599 -5.132599 25.482599
					CHANNELS 3 Xrotation Yrotation Zrotation
					End Site
					{
						OFFSET 0.000000 22.523010 0.000000
					}
				}
				JOINT newVegas:Right_Peck
				{
					OFFSET -17.239599 -5.132202 25.482599
					CHANNELS 3 Xrotation Yrotation Zrotation
					End Site
					{
						OFFSET 0.000000 22.523010 0.000000
					}
				}
				JOINT newVegas:Right_Collar
				{
					OFFSET -18.625099 8.655792 8.828100
					CHANNELS 3 Xrotation Yrotation Zrotation
					JOINT newVegas:Right_Collar1
					{
						OFFSET -14.783401 10.539993 -1.259500
						CHANNELS 3 Xrotation Yrotation Zrotation
						End Site
						{
							OFFSET 0.000000 18.199631 0.000000
						}
					}
				}
			}
		}
		JOINT newVegas:Belly
		{
			OFFSET 0.000000 -6.540398 9.014299
			CHANNELS 3 Xrotation Yrotation Zrotation
			End Site
			{
				OFFSET 0.000000 11.566666 0.000000
			}
		}
	}
	JOINT newVegas:ElvisFacialAnim_Joint
	{
		OFFSET 1.000000 -95.330101 -8.825800
		CHANNELS 3 Xrotation Yrotation Zrotation
		End Site
		{
			OFFSET 0.000000 35.315800 0.000000
		}
	}
}
MOTION
Frames: 4
Frame Time: 0.016667
-1.294123 93.564560 2.019789 1.164688 6.200594 5.333360 0.000000 -0.000000 -0.000001 -8.870897 5.925313 1.984249 14.785179 4.644123 0.194349 -4.551238 0.679403 -6.260280 -0.000000 -0.000001 -0.000000 -0.000000 0.000002 -0.000000 -14.641766 -10.577362 -14.507586 32.083400 -0.165748 -2.185950 -17.990117 -9.142215 8.656759 -0.000000 0.000000 0.000000 -0.000000 -0.000001 -0.000000 8.197496 -0.954470 6.989972 1.977286 -0.412824 1.344539 1.971132 -0.404076 1.350294 0.602786 0.233286 1.478326 0.602802 0.233287 1.478330 0.000002 -0.000000 -0.000002 0.602797 0.233296 1.478331 0.602795 0.233289 1.478332 0.000001 -0.000000 -0.000001 0.000002 -0.000000 -0.000000 0.635352 -5.283652 -12.880634 5.726505 -4.951274 -42.398628 -0.000035 -65.564379 -0.000068 -5.370019 -8.061424 -58.939690 -7.220049 -16.942334 15.004582 8.206664 0.329529 4.976431 0.000002 -0.000006 -0.000001 -0.931677 -1.396873 -13.797123 1.148767 3.485784 -36.471025 0.000001 0.000002 -0.000002 0.832890 5.259365 -29.649161 1.128763 3.458564 -36.139979 0.000001 0.000000 -0.000001 6.569937 12.601582 -38.071225 2.521135 4.813785 -55.264652 -0.000002 0.000003 -0.000000 9.474807 25.638742 -47.960000 1.102895 3.422954 -35.709633 0.000000 0.000005 0.000000 0.000002 -0.000003 0.000003 0.000002 -0.000003 0.000003 0.000001 -0.000003 0.000003 -0.000001 -0.000001 0.000001 -0.000001 -0.000001 -0.000001 -0.000001 -0.000001 0.000001 -0.000000 -0.000002 0.000001 1.688119 19.320710 11.981020 -17.246740 18.683079 60.973140 -0.001877 95.131729 0.001896 -19.139435 -6.743533 -4.913987 17.887557 49.319075 12.919664 30.991901 -39.602898 28.049275 -0.000001 -0.000003 -0.000003 3.343371 -6.897289 53.623272 1.487413 -3.413767 47.076529 -0.000001 0.000001 0.000005 3.298260 -6.778195 63.367025 1.097395 -3.004782 40.118175 -0.000000 -0.000001 -0.000004 5.188523 -7.512421 67.475876 0.689934 -2.441245 31.557427 -0.000000 0.000001 0.000003 0.768515 -22.546656 59.828912 1.001579 -2.887403 38.254138 0.000002 0.000002 -0.000001 -0.000000 0.000004 -0.000000 -0.000000 0.000003 0.000004 -0.000000 0.000004 -0.000000 0.000001 0.000001 -0.000001 0.000000 0.000002 -0.000001 0.000001 0.000001 -0.000001 0.000000 0.000002 -0.000001 0.000000 -0.000000 0.000000 0.000000 -0.000000 0.000000 0.000000 -0.000000 0.000000 0.000000 -0.000000 0.000000 0.000000 -0.000000 0.000000 0.000000 -0.000000 0.000000 0.000000 -0.000000 0.000000 -0.000000 -0.000000 -0.000000 0.000000 -0.000000 -0.000001 
-1.270146 93.560860 2.073661 1.135189 6.132099 5.341687 0.000000 0.000000 -0.000000 -8.753967 5.957314 1.953497 14.802085 4.671053 0.181951 -4.680598 0.681396 -6.192639 -0.000000 -0.000000 -0.000000 -0.000000 0.000003 0.000001 -14.505782 -10.286292 -14.439213 32.071392 -0.388188 -2.182428 -18.001331 -9.176724 8.746612 -0.000000 -0.000000 0.000000 0.000001 -0.000001 0.000000 8.164880 -1.105045 6.994757 1.971237 -0.454235 1.335347 1.964732 -0.445020 1.341882 0.615783 0.248699 1.451416 0.615791 0.248698 1.451409 0.000000 0.000001 -0.000000 0.615717 0.248701 1.451406 0.615863 0.248685 1.451428 -0.000001 0.000001 0.000001 0.000000 0.000001 0.000001 0.638341 -5.316638 -12.830690 5.804759 -5.004714 -42.414932 -0.000023 -65.564304 -0.000060 -5.414945 -8.062158 -59.000670 -7.220050 -16.942334 15.004577 8.205376 0.326308 4.976844 -0.000000 -0.000001 -0.000004 -0.925462 -1.417190 -13.702030 1.148259 3.485086 -36.462190 -0.000001 0.000001 -0.000003 0.830610 5.255372 -29.604072 1.128868 3.458715 -36.142154 0.000003 0.000001 -0.000003 6.563261 12.601784 -38.034547 2.517037 4.810936 -55.215782 -0.000001 0.000003 0.000000 9.464130 25.640247 -47.933025 1.103965 3.424441 -35.727528 0.000000 0.000000 -0.000000 0.000001 0.000001 0.000002 0.000001 0.000001 0.000002 0.000000 0.000001 0.000002 0.000001 -0.000001 -0.000002 0.000000 -0.000001 -0.000003 0.000001 -0.000001 -0.000002 -0.000000 -0.000001 -0.000002 1.742139 19.638221 11.894621 -14.648420 20.367928 60.669189 0.000605 96.789914 -0.000570 -19.473479 -6.938342 -5.387796 16.983631 48.490423 13.131536 30.991939 -39.602871 28.049270 -0.000001 -0.000002 -0.000001 3.357194 -6.907509 53.814668 1.499361 -3.424794 47.276681 0.000002 0.000001 -0.000000 3.331228 -6.794202 63.393561 1.109694 -3.019306 40.352498 0.000000 -0.000001 0.000000 5.186947 -7.514250 67.421870 0.696315 -2.451618 31.707316 0.000002 0.000001 -0.000003 0.773517 -22.549316 59.891443 0.988302 -2.870524 37.990291 0.000003 0.000002 -0.000001 0.000001 -0.000001 0.000001 0.000001 -0.000001 0.000004 0.000001 -0.000001 0.000001 0.000002 0.000000 -0.000000 0.000002 0.000001 -0.000001 0.000002 0.000000 -0.000000 0.000002 0.000001 -0.000001 0.000000 0.000001 0.000001 0.000000 0.000001 0.000001 0.000000 0.000001 0.000001 0.000000 0.000001 0.000001 0.000000 0.000001 0.000001 0.000000 0.000001 0.000001 0.000000 0.000001 0.000001 -0.000001 -0.000001 -0.000000 0.000000 0.000000 -0.000000 
-1.246494 93.555840 2.123610 1.101679 6.056613 5.333705 -0.000000 0.000000 -0.000000 -8.648176 5.983127 1.963464 14.832222 4.701709 0.166524 -4.793752 0.686209 -6.199716 0.000000 -0.000000 -0.000000 -0.000001 0.000000 -0.000000 -14.361736 -9.994527 -14.352285 32.046650 -0.611170 -2.178832 -18.001059 -9.208552 8.832752 -0.000000 -0.000002 0.000000 0.000001 0.000001 0.000001 8.131782 -1.284188 6.996480 1.966687 -0.503289 1.325314 1.959778 -0.493537 1.332816 0.625433 0.264696 1.422336 0.625435 0.264696 1.422329 -0.000001 -0.000000 -0.000000 0.625432 0.264692 1.422327 0.625513 0.264693 1.422341 -0.000000 0.000000 0.000000 -0.000001 -0.000000 -0.000000 0.638524 -5.362368 -12.762702 5.906810 -5.087484 -42.408822 -0.000005 -65.558601 -0.000005 -5.511681 -8.054027 -59.056418 -7.220048 -16.942330 15.004580 8.201851 0.319214 4.980764 -0.000000 -0.000002 -0.000005 -0.919227 -1.438393 -13.606785 1.147732 3.484390 -36.453853 -0.000002 0.000004 -0.000002 0.828534 5.251733 -29.562893 1.128926 3.458801 -36.143264 0.000003 -0.000000 -0.000001 6.558684 12.601981 -38.009221 2.513634 4.808595 -55.175412 0.000000 0.000003 -0.000000 9.456715 25.641310 -47.914313 1.106376 3.427780 -35.767600 0.000000 0.000000 0.000001 0.000002 0.000003 -0.000003 0.000002 0.000003 -0.000003 0.000001 0.000003 -0.000003 -0.000001 -0.000002 -0.000002 -0.000001 -0.000003 -0.000006 -0.000001 -0.000002 -0.000002 -0.000001 -0.000003 -0.000002 1.812173 19.996171 11.753379 -12.150129 22.247781 60.206048 -0.000854 98.202568 0.000836 -19.507449 -7.108533 -5.826921 16.072011 47.646334 13.324322 30.991963 -39.602885 28.049275 0.000002 0.000001 -0.000000 3.371444 -6.918006 54.010957 1.511630 -3.436091 47.481938 -0.000001 0.000001 0.000003 3.365031 -6.810598 63.420786 1.122385 -3.034157 40.592788 0.000003 -0.000001 -0.000003 5.185270 -7.516121 67.366484 0.702905 -2.462256 31.861104 0.000000 0.000001 0.000001 0.778654 -22.552069 59.955551 0.974793 -2.853175 37.719761 0.000002 0.000003 -0.000003 -0.000001 -0.000002 -0.000004 -0.000000 -0.000002 -0.000000 -0.000001 -0.000002 -0.000002 0.000000 0.000001 -0.000000 -0.000000 0.000002 -0.000000 0.000000 0.000001 -0.000000 -0.000000 0.000002 0.000000 0.000000 0.000000 0.000001 0.000000 0.000000 0.000001 0.000000 0.000000 0.000001 0.000000 0.000000 0.000001 0.000000 0.000000 0.000001 0.000000 0.000000 0.000001 0.000000 0.000000 0.000001 -0.000000 0.000000 0.000000 -0.000000 0.000000 -0.000000 
-1.216944 93.551666 2.171350 1.075330 5.999683 5.315697 -0.000000 -0.000000 -0.000000 -8.563918 6.010461 1.979140 14.873300 4.709357 0.149505 -4.913935 0.690767 -6.194264 0.000000 -0.000001 -0.000000 0.000001 -0.000002 -0.000000 -14.204685 -9.702067 -14.254548 31.994764 -0.859635 -2.174529 -17.987643 -9.240230 8.928994 -0.000000 -0.000001 -0.000000 0.000001 -0.000000 -0.000001 8.102970 -1.486612 6.990870 1.963645 -0.558699 1.313112 1.956316 -0.548352 1.321721 0.632258 0.280922 1.392192 0.632283 0.280923 1.392210 0.000001 0.000000 -0.000001 0.632353 0.280936 1.392191 0.632198 0.280915 1.392196 -0.000000 0.000000 0.000001 0.000001 0.000000 0.000001 0.637410 -5.414064 -12.664162 6.031516 -5.194022 -42.395247 -0.000004 -65.552058 0.000005 -5.622252 -8.057232 -59.067435 -7.220055 -16.942339 15.004577 8.194851 0.306811 4.986436 0.000001 -0.000003 -0.000006 -0.913715 -1.457652 -13.524780 1.147196 3.483648 -36.444902 0.000001 0.000003 0.000001 0.826813 5.248722 -29.529203 1.129015 3.458909 -36.144371 -0.000002 -0.000001 -0.000001 6.557018 12.602163 -37.999553 2.511948 4.807420 -55.155215 -0.000001 0.000001 -0.000001 9.453332 25.641766 -47.905786 1.108074 3.430137 -35.796229 -0.000001 -0.000003 -0.000001 0.000000 0.000000 0.000003 0.000000 0.000000 0.000003 -0.000001 0.000000 0.000003 -0.000001 0.000001 0.000002 -0.000000 0.000001 0.000002 -0.000001 0.000001 0.000002 -0.000001 -0.000000 0.000002 1.891716 20.393149 11.594518 -9.757496 24.346233 59.504089 0.000821 99.317016 -0.000816 -19.132765 -7.232173 -6.153897 15.156362 46.791362 13.496829 30.992028 -39.602851 28.049319 0.000000 -0.000001 0.000001 3.386104 -6.928660 54.211215 1.524197 -3.447555 47.691352 0.000000 0.000001 0.000001 3.399558 -6.827283 63.448557 1.135353 -3.049271 40.837950 0.000001 -0.000001 -0.000002 5.183521 -7.518006 67.309971 0.709681 -2.473088 32.018096 -0.000001 0.000001 0.000001 0.783951 -22.554866 60.020977 0.961092 -2.835395 37.443766 0.000000 0.000003 -0.000001 -0.000000 0.000000 -0.000001 0.000000 -0.000001 0.000004 -0.000000 -0.000000 -0.000001 -0.000001 -0.000001 -0.000000 -0.000001 0.000000 -0.000000 -0.000001 -0.000001 -0.000000 -0.000001 -0.000000 -0.000000 0.000000 0.000000 0.000001 0.000000 0.000000 0.000001 0.000000 0.000000 0.000001 0.000000 0.000000 0.000001 0.000000 0.000000 0.000001 0.000000 0.000000 0.000001 0.000000 0.000000 0.000001 -0.000001 -0.000000 -0.000001 -0.000000 -0.000000 -0.000000 
